<svg xmlns="http://www.w3.org/2000/svg" viewBox="0 0 20 20"><path d="M19.104.896c-.562-.562-1.31-.87-2.104-.87s-1.542.308-2.104.87l-12.75 12.75c-.052.052-.09.114-.116.183l-2 5.5c-.066.18-.02.383.116.52.094.097.224.15.354.15.057 0 .115-.01.17-.03l5.5-2c.07-.027.132-.067.184-.118l12.75-12.75c.562-.562.87-1.31.87-2.104s-.308-1.545-.87-2.107zM5.724 17.068l-4.388 1.596 1.596-4.39L14 3.208 16.793 6 5.725 17.068zM18.397 4.396l-.896.896L14.71 2.5l.896-.897c.373-.373.87-.578 1.396-.578s1.02.205 1.394.578.578.87.578 1.396-.205 1.02-.578 1.392z"/></svg>