<?xml version="1.0" encoding="utf-8"?>
<!-- Generator: Adobe Illustrator 19.0.0, SVG Export Plug-In . SVG Version: 6.00 Build 0)  -->
<svg version="1.1" id="Calque_1" xmlns="http://www.w3.org/2000/svg" xmlns:xlink="http://www.w3.org/1999/xlink" x="0px" y="0px"
	 width="20px" height="20px" viewBox="0 0 20 20" style="enable-background:new 0 0 20 20;" xml:space="preserve">
<path d="M18.9,19.2l-5.9-6.5c1.3-1.4,2.1-3.2,2.1-5.2c0-2-0.8-3.9-2.2-5.3S9.5,0,7.5,0S3.6,0.8,2.2,2.2S0,5.5,0,7.5s0.8,3.9,2.2,5.3
	S5.5,15,7.5,15c1.7,0,3.4-0.6,4.7-1.6l5.9,6.5c0.1,0.1,0.2,0.2,0.4,0.2c0.1,0,0.2,0,0.3-0.1C19,19.7,19.1,19.4,18.9,19.2L18.9,19.2z
	 M1,7.5C1,3.9,3.9,1,7.5,1S14,3.9,14,7.5S11.1,14,7.5,14S1,11.1,1,7.5z"/>
</svg>
